<svg width="38" height="42" viewBox="0 0 38 42" fill="none" xmlns="http://www.w3.org/2000/svg">
<path d="M38 21C38 9.39919 29.496 0 19 0C8.50403 0 0 9.39919 0 21C0 32.6008 8.50403 42 19 42C29.496 42 38 32.6008 38 21ZM3.67742 21C3.67742 11.6431 10.5343 4.06451 19 4.06451C27.4657 4.06451 34.3226 11.6431 34.3226 21C34.3226 30.3569 27.4657 37.9355 19 37.9355C10.5343 37.9355 3.67742 30.3569 3.67742 21ZM9.19355 22.6935V19.3065C9.19355 18.7476 9.60726 18.2903 10.1129 18.2903L19 18.2903V12.6169C19 11.7109 19.9883 11.2621 20.5706 11.8972L28.1552 20.2802C28.5153 20.6782 28.5153 21.3218 28.1552 21.7198L20.5706 30.1028C19.9883 30.7464 19 30.2891 19 29.3831V23.7097L10.1129 23.7097C9.60726 23.7097 9.19355 23.2524 9.19355 22.6935Z" fill="black"/>
</svg>
