<svg width="70" height="70" viewBox="0 0 70 70" fill="none" xmlns="http://www.w3.org/2000/svg">
<path d="M35.0002 68.9062C53.7306 68.9062 68.9063 53.7305 68.9063 35C68.9063 16.2695 53.7306 1.09374 35.0002 1.09374C16.2697 1.09374 1.09399 16.2695 1.09399 35C1.09399 53.7305 16.2697 68.9062 35.0002 68.9062ZM19.1408 28.9844H35.0002V19.291C35.0002 17.8281 36.7775 17.0898 37.8029 18.1289L53.4298 33.8379C54.0724 34.4805 54.0724 35.5059 53.4298 36.1484L37.8029 51.8711C36.7638 52.9102 35.0002 52.1719 35.0002 50.709V41.0156H19.1408C18.2385 41.0156 17.5002 40.2773 17.5002 39.375V30.625C17.5002 29.7227 18.2385 28.9844 19.1408 28.9844Z" fill="black"/>
</svg>
