<svg width="71" height="70" viewBox="0 0 71 70" fill="none" xmlns="http://www.w3.org/2000/svg">
<path d="M35.0042 1.09375C16.2737 1.09375 1.09799 16.2695 1.09799 35C1.09799 53.7305 16.2737 68.9063 35.0042 68.9063C53.7346 68.9063 68.9103 53.7305 68.9103 35C68.9103 16.2695 53.7346 1.09375 35.0042 1.09375ZM50.8635 41.0156H35.0042V50.709C35.0042 52.1719 33.2268 52.9102 32.2014 51.8711L16.5745 36.1621C15.9319 35.5195 15.9319 34.4941 16.5745 33.8516L32.2014 18.1289C33.2405 17.0898 35.0042 17.8281 35.0042 19.291V28.9844H50.8635C51.7658 28.9844 52.5041 29.7227 52.5041 30.625V39.375C52.5041 40.2773 51.7658 41.0156 50.8635 41.0156Z" fill="black"/>
</svg>
