<svg width="28" height="22" viewBox="0 0 28 22" fill="none" xmlns="http://www.w3.org/2000/svg">
<path d="M3.65466 21.6041L9.23354 17.6518C9.48534 17.4734 9.63828 17.2154 9.66146 16.9329L9.7205 16.2133C11.4679 17.5905 13.7322 18.5143 16.2599 18.7317C22.2732 19.2488 27.4827 15.5581 27.8989 10.4861C28.3151 5.41412 23.78 0.885452 17.7668 0.36835C11.7536 -0.148751 6.54399 3.54193 6.1278 8.61392C5.95284 10.746 6.6503 12.7797 7.96686 14.4622L7.11381 14.3888C6.77887 14.36 6.45058 14.4429 6.19877 14.6213L0.61989 18.5736C0.0938978 18.9463 0.0388395 19.6172 0.497096 20.0701L1.87565 21.4467C2.33354 21.9039 3.12903 21.9723 3.65466 21.6041ZM10.3146 8.97395C10.5706 5.85307 13.7717 3.58113 17.477 3.89976C21.177 4.21794 23.9686 7.00077 23.7122 10.1261C23.4561 13.2469 20.255 15.5189 16.5497 15.2003C12.8497 14.8821 10.0581 12.0992 10.3146 8.97395Z" fill="white"/>
</svg>
