<svg width="45" height="48" viewBox="0 0 45 48" fill="none" xmlns="http://www.w3.org/2000/svg">
<path d="M45 24C45 10.7419 34.9294 0 22.5 0C10.0706 0 0 10.7419 0 24C0 37.2581 10.0706 48 22.5 48C34.9294 48 45 37.2581 45 24ZM4.35484 24C4.35484 13.3065 12.4748 4.64516 22.5 4.64516C32.5252 4.64516 40.6452 13.3065 40.6452 24C40.6452 34.6935 32.5252 43.3548 22.5 43.3548C12.4748 43.3548 4.35484 34.6935 4.35484 24ZM10.8871 25.9355L10.8871 22.0645C10.8871 21.4258 11.377 20.9032 11.9758 20.9032L22.5 20.9032V14.4194C22.5 13.3839 23.6704 12.871 24.3599 13.5968L33.3417 23.1774C33.7681 23.6323 33.7681 24.3677 33.3417 24.8226L24.3599 34.4032C23.6704 35.1387 22.5 34.6161 22.5 33.5806V27.0968L11.9758 27.0968C11.377 27.0968 10.8871 26.5742 10.8871 25.9355Z" fill="white"/>
</svg>
